<?xml version="1.0" encoding="utf-8"?>
<!-- Generator: Adobe Illustrator 22.0.1, SVG Export Plug-In . SVG Version: 6.00 Build 0)  -->
<svg version="1.1" id="レイヤー_1" xmlns="http://www.w3.org/2000/svg" xmlns:xlink="http://www.w3.org/1999/xlink" x="0px"
	 y="0px" viewBox="0 0 490 486.9" style="enable-background:new 0 0 490 486.9;" xml:space="preserve">
<style type="text/css">
	.st0{fill:#333333;}
</style>
<g>
	<g>
		<path class="st0" d="M469.6,327.3c-11.3,0-20.4,9.1-20.4,20.4v98.4H40.8v-98.4c0-11.3-9.1-20.4-20.4-20.4S0,336.4,0,347.7v118.8
			c0,11.3,9.1,20.4,20.4,20.4h449.2c11.3,0,20.4-9.1,20.4-20.4V347.7C490,336.4,480.9,327.3,469.6,327.3z"/>
		<path class="st0" d="M230,351.5c11.5,11.6,25.6,5.2,29.9,0l117.3-126.2c7.7-8.3,7.2-21.2-1.1-28.9c-8.3-7.7-21.2-7.2-28.8,1.1
			l-81.9,88.1V20.4C265.4,9.1,256.3,0,245,0c-11.3,0-20.4,9.1-20.4,20.4v265.3l-81.9-88.1c-7.7-8.3-20.6-8.7-28.9-1.1
			c-8.3,7.7-8.7,20.6-1.1,28.9L230,351.5L230,351.5z"/>
	</g>
</g>
</svg>
